<svg xmlns="http://www.w3.org/2000/svg" viewBox="0 0 102 102"><style>.t340{fill:#c60c30}.t341{fill:#fff}.t342{fill:#002f5f}</style><path class="t342" d="M51 0C22.833 0 0 22.833 0 51c0 28.167 22.833 51 51 51 28.167 0 51-22.833 51-51C102 22.833 79.167 0 51 0zM51 85c-18.778 0-34-15.222-34-34 0-18.778 15.222-34 34-34 18.778 0 34 15.222 34 34C85 69.778 69.778 85 51 85z"/><path class="t341" d="M51 17c-18.778 0-34 15.222-34 34 0 18.778 15.222 34 34 34 18.778 0 34-15.222 34-34C85 32.222 69.778 17 51 17zM51 68c-9.389 0-17-7.611-17-17s7.611-17 17-17 17 7.611 17 17S60.389 68 51 68z"/><circle class="t340" cx="51" cy="51" r="17"/></svg>