<svg xmlns="http://www.w3.org/2000/svg" viewBox="0 0 206 392"><style>.s{fill:#900}</style><path class="s" d="M102.959 291.621c-2.32 0-4.398 0.957-5.918 2.481l-0.082 0.078c-0.957 0.961-1.68 2.242-2.078 3.679 -0.16 0.719-0.32 1.442-0.32 2.243v83.597c0 0.642 0.078 1.281 0.238 1.922 0.883 3.681 4.16 6.379 8.082 6.379 3.918 0 7.199-2.698 8.078-6.379 0.16-0.641 0.242-1.28 0.242-1.922v-83.758c0-0.8-0.082-1.519-0.32-2.242C110.002 294.181 106.799 291.621 102.959 291.621L102.959 291.621zM102.959 291.621"/></svg>