<svg xmlns="http://www.w3.org/2000/svg" viewBox="0 0 206 392"><style>.s{fill:#fc0}</style><path class="s" d="M69.279 291.621c-4.641 0-8.32 3.759-8.32 8.32v41.84c0 4.642 3.762 8.321 8.32 8.321 4.562 0 8.32-3.762 8.32-8.321v-41.84C77.6 295.302 73.842 291.621 69.279 291.621L69.279 291.621zM69.279 291.621"/><path class="s" d="M136.639 291.621c-4.637 0-8.32 3.759-8.32 8.32v41.84c0 4.642 3.762 8.321 8.32 8.321 4.562 0 8.32-3.762 8.32-8.321v-41.84C145.041 295.302 141.279 291.621 136.639 291.621L136.639 291.621zM136.639 291.621"/></svg>