<svg xmlns="http://www.w3.org/2000/svg" viewBox="0 0 206 392"><style>.s0{fill:#475f14}.s1{fill:#900}.s2{fill:#fc0}</style><path class="s0" d="M178.4 195.22c6.32-70.078-18.16-141.521-69.52-192.879 -3.121-3.121-8.641-3.121-11.762 0C45.76 53.699 21.279 125.06 27.6 195.22c-17.758 19.121-27.52 43.761-27.52 70 0 26.479 10.078 51.679 28.398 70.883 4.481 4.718 15.922 2.558 14.082-7.84 -0.96-5.442-2.16-10.724-2.16-15.922 0-12.961 3.918-25.281 11.2-35.681 1.199 0.642 2.559 1.039 4 1.039H150.4c1.441 0 2.801-0.397 4-1.039 7.281 10.399 11.199 22.72 11.199 35.681 0 5.198-1.359 10.397-2.16 15.922 -1.68 11.519 10.32 11.918 14.082 7.84 18.238-19.282 28.398-44.403 28.398-70.883C205.842 238.98 196.158 214.263 178.4 195.22L178.4 195.22zM102.959 20.263c14.883 16 27.043 34 36.48 53.117H66.561C75.92 54.181 88.08 36.263 102.959 20.263L102.959 20.263zM24.56 301.06c-5.121-11.118-7.761-23.278-7.761-35.84 0-16.957 4.883-33.199 14-47.117 0.082 0.636 8.801 34 12.16 42.558C32.959 272.181 26.639 286.103 24.56 301.06L24.56 301.06zM144.881 260.98h-83.84c-23.52-55.199-23.281-116.878-1.922-171.039h87.68C168.158 144.103 168.4 205.781 144.881 260.98L144.881 260.98zM163.041 260.66c4.641-11.922 12.078-42.082 12.16-42.558 9.117 13.839 14 30.078 14 47.117 0 12.562-2.723 24.722-7.762 35.84C179.279 286.103 172.959 272.181 163.041 260.66L163.041 260.66zM163.041 260.66"/><path class="s0" d="M102.881 134c9.941 0 18 8.059 18 18s-8.059 18-18 18 -18-8.059-18-18S92.939 134 102.881 134M102.881 118c-18.748 0-34 15.252-34 34s15.252 34 34 34 34-15.252 34-34S121.629 118 102.881 118L102.881 118z"/><path class="s2" d="M69.279 291.621c-4.641 0-8.32 3.759-8.32 8.32v41.84c0 4.642 3.762 8.321 8.32 8.321 4.562 0 8.32-3.762 8.32-8.321v-41.84C77.6 295.302 73.842 291.621 69.279 291.621L69.279 291.621zM69.279 291.621"/><path class="s1" d="M102.959 291.621c-2.32 0-4.398 0.957-5.918 2.481l-0.082 0.078c-0.957 0.961-1.68 2.242-2.078 3.679 -0.16 0.719-0.32 1.442-0.32 2.243v83.597c0 0.642 0.078 1.281 0.238 1.922 0.883 3.681 4.16 6.379 8.082 6.379 3.918 0 7.199-2.698 8.078-6.379 0.16-0.641 0.242-1.28 0.242-1.922v-83.758c0-0.8-0.082-1.519-0.32-2.242C110.002 294.181 106.799 291.621 102.959 291.621L102.959 291.621zM102.959 291.621"/><path class="s2" d="M136.639 291.621c-4.637 0-8.32 3.759-8.32 8.32v41.84c0 4.642 3.762 8.321 8.32 8.321 4.562 0 8.32-3.762 8.32-8.321v-41.84C145.041 295.302 141.279 291.621 136.639 291.621L136.639 291.621zM136.639 291.621"/></svg>