<svg xmlns="http://www.w3.org/2000/svg" viewBox="0 0 19 19"><style>.s{fill:#eef5df}</style><path class="s" d="M13.282 14.055c-1.765 0-2.539-0.994-2.486-2.23h-0.08c-0.561 1.128-1.791 2.23-3.34 2.23 -1.603 0-2.485-1.103-2.485-3.332 0-3.413 1.844-6.208 5.639-6.208 1.095 0 2.218 0.215 2.966 0.457l-0.802 4.461c-0.294 1.666 0.026 2.258 0.988 2.258 1.469 0 2.432-1.048 2.432-3.871 0-2.768-1.657-5.293-5.853-5.293 -4.062 0-7.321 3.09-7.321 7.604 0 3.843 2.11 6.344 6.6 6.344 1.389 0 2.833-0.217 4.169-0.7v2.526C12.586 18.758 10.583 19 9.139 19 3.207 19 0 15.561 0 10.427 0 4.272 4.65 0 10.422 0 15.874 0 19 3.44 19 7.659 19 11.96 16.647 14.055 13.282 14.055zM9.781 6.557c-1.577 0-2.378 2.15-2.378 3.682 0 1.021 0.213 1.479 0.721 1.479 0.989 0 1.977-1.451 2.485-4.085l0.187-0.94C10.502 6.61 10.155 6.557 9.781 6.557z"/></svg>